<?xml version="1.0" standalone="no"?>
<!DOCTYPE svg PUBLIC "-//W3C//DTD SVG 20010904//EN"
 "http://www.w3.org/TR/2001/REC-SVG-20010904/DTD/svg10.dtd">
<svg version="1.0" xmlns="http://www.w3.org/2000/svg"
 width="225.000000pt" height="225.000000pt" viewBox="0 0 225.000000 225.000000"
 preserveAspectRatio="xMidYMid meet">
<metadata>
Created by potrace 1.14, written by Peter Selinger 2001-2017
</metadata>
<g transform="translate(0.000000,225.000000) scale(0.100000,-0.100000)"
fill="#000000" stroke="none">
<path d="M988 1900 c-122 -22 -266 -89 -365 -171 -116 -95 -219 -256 -260
-409 -24 -89 -24 -300 0 -390 40 -152 142 -312 263 -412 70 -58 213 -131 304
-155 90 -24 300 -24 390 0 92 24 234 97 307 157 117 97 219 257 260 410 28
103 25 312 -5 410 -49 156 -139 293 -258 392 -68 57 -212 131 -299 154 -70 18
-269 27 -337 14z m365 -77 c112 -39 184 -82 270 -163 117 -109 180 -219 219
-379 24 -100 21 -243 -7 -346 -34 -127 -140 -302 -181 -298 -24 2 -252 90
-280 108 -30 20 -74 102 -74 139 0 17 9 55 20 84 11 29 20 61 20 71 0 10 9 21
19 24 28 7 53 63 55 121 1 44 -2 51 -17 49 -15 -1 -17 4 -13 20 14 48 18 164
7 205 -16 57 -60 104 -123 133 -47 21 -68 24 -176 24 l-124 0 -32 -36 c-19
-20 -41 -39 -50 -42 -29 -11 -38 -57 -33 -167 3 -58 8 -112 12 -122 5 -11 1
-16 -12 -15 -43 4 -10 -157 35 -170 23 -6 74 -162 64 -195 -10 -34 -48 -103
-64 -116 -8 -6 -47 -24 -88 -40 -41 -17 -106 -42 -145 -57 l-69 -28 -31 36
c-131 152 -193 399 -152 599 32 150 88 258 196 370 151 159 331 231 556 224
91 -3 125 -8 198 -33z"/>
</g>
</svg>
